<?xml version="1.0" standalone="no"?>
<!DOCTYPE svg PUBLIC "-//W3C//DTD SVG 20010904//EN"
 "http://www.w3.org/TR/2001/REC-SVG-20010904/DTD/svg10.dtd">
<svg version="1.0" xmlns="http://www.w3.org/2000/svg"
 width="70.000000pt" height="70.000000pt" viewBox="0 0 70.000000 70.000000"
 preserveAspectRatio="xMidYMid meet">
<metadata>
Created by potrace 1.14, written by Peter Selinger 2001-2017
</metadata>
<g transform="translate(0.000000,70.000000) scale(0.100000,-0.100000)"
fill="#000000" stroke="none">
<path d="M0 350 l0 -350 350 0 350 0 0 350 0 350 -350 0 -350 0 0 -350z m284
243 c3 -10 14 -31 25 -48 21 -32 28 -105 11 -105 -5 0 -10 -8 -10 -18 0 -10
-13 -31 -30 -45 -26 -24 -38 -27 -100 -27 l-70 0 0 -140 c0 -133 -1 -140 -20
-140 -20 0 -20 7 -20 270 l0 270 104 0 c90 0 104 -2 110 -17z m346 -3 c0 -19
-7 -20 -91 -20 -114 0 -119 -4 -119 -104 l0 -76 76 0 c66 0 75 -2 72 -17 -3
-15 -16 -19 -75 -21 l-72 -3 -3 -137 c-3 -133 -4 -137 -25 -140 l-23 -3 0 242
0 243 27 28 c26 27 30 28 130 28 96 0 103 -1 103 -20z"/>
<path d="M112 483 l3 -88 54 -3 c47 -3 57 0 82 24 37 36 39 87 4 127 -21 24
-31 27 -85 27 l-61 0 3 -87z"/>
</g>
</svg>
